<?xml version="1.0" standalone="no"?>
<!DOCTYPE svg PUBLIC "-//W3C//DTD SVG 20010904//EN"
 "http://www.w3.org/TR/2001/REC-SVG-20010904/DTD/svg10.dtd">
<svg version="1.0" xmlns="http://www.w3.org/2000/svg"
 width="512.000000pt" height="512.000000pt" viewBox="0 0 512.000000 512.000000"
 preserveAspectRatio="xMidYMid meet">
<metadata>
Created by potrace 1.15, written by Peter Selinger 2001-2017
</metadata>
<g transform="translate(0.000000,512.000000) scale(0.100000,-0.100000)"
fill="#000000" stroke="none">
<path d="M2375 4780 c-943 -105 -1709 -769 -1941 -1683 -63 -249 -82 -583 -48
-849 100 -777 613 -1453 1341 -1765 657 -282 1437 -228 2043 141 601 367 995
987 1071 1684 17 160 7 473 -20 624 -170 947 -896 1667 -1846 1829 -137 23
-467 34 -600 19z m-853 -1852 c3 -482 3 -494 25 -540 31 -67 104 -142 166
-169 77 -35 201 -34 278 2 68 32 120 82 157 152 l27 52 3 498 3 497 168 0 168
0 12 -42 c22 -75 92 -249 147 -366 59 -125 173 -332 184 -332 4 0 12 19 19 43
24 80 93 206 149 273 75 89 186 165 294 200 71 23 100 27 198 27 97 0 127 -4
195 -26 210 -69 377 -233 446 -437 30 -90 37 -234 15 -333 -47 -209 -191 -395
-383 -491 -108 -54 -185 -69 -333 -63 -107 3 -139 9 -220 36 -52 18 -119 46
-149 62 -32 18 -56 27 -60 21 -3 -6 -39 -168 -80 -361 l-75 -351 -168 0 c-112
0 -168 4 -168 11 0 5 48 228 106 495 l106 484 -34 48 c-55 77 -119 181 -168
275 l-47 88 -6 -133 c-7 -152 -23 -223 -72 -323 -85 -173 -250 -306 -435 -349
-83 -20 -217 -20 -299 -1 -174 41 -351 184 -430 346 -70 146 -71 153 -71 707
l0 492 165 0 164 0 3 -492z"/>
<path d="M3383 2884 c-99 -36 -197 -169 -223 -301 -6 -32 -20 -94 -31 -138
l-20 -80 32 -27 c48 -40 158 -95 225 -113 143 -37 265 -10 363 81 83 77 116
151 116 264 0 70 -4 94 -25 135 -31 64 -101 134 -165 165 -64 31 -206 38 -272
14z"/>
</g>
</svg>
