<?xml version="1.0" standalone="no"?>
<!DOCTYPE svg PUBLIC "-//W3C//DTD SVG 20010904//EN"
 "http://www.w3.org/TR/2001/REC-SVG-20010904/DTD/svg10.dtd">
<svg version="1.0" xmlns="http://www.w3.org/2000/svg"
 width="560.000000pt" height="560.000000pt" viewBox="0 0 560.000000 560.000000"
 preserveAspectRatio="xMidYMid meet">
<metadata>
Created by potrace 1.11, written by Peter Selinger 2001-2013
</metadata>
<g transform="translate(0.000000,560.000000) scale(0.100000,-0.100000)"
fill="#000000" stroke="none">
<path d="M2415 5376 c-183 -48 -333 -145 -445 -289 -43 -55 -90 -158 -90 -197
0 -31 -6 -43 -31 -62 -82 -62 -153 -144 -185 -213 -18 -39 -35 -82 -39 -97 -5
-18 -22 -36 -53 -54 -300 -173 -610 -476 -807 -789 -149 -237 -271 -544 -321
-809 -2 -12 -6 -32 -8 -46 -7 -36 -16 -95 -26 -175 -11 -89 -5 -493 9 -565 5
-30 12 -71 15 -90 30 -199 108 -438 216 -655 363 -735 1076 -1233 1895 -1324
118 -13 436 -10 549 5 535 71 997 292 1372 657 340 329 580 757 678 1207 44
203 54 306 53 525 0 160 -17 352 -42 470 -79 380 -254 747 -501 1051 -140 173
-393 397 -574 507 -47 29 -55 39 -80 104 -36 94 -72 155 -131 225 l-49 56 35
52 c100 149 79 383 -43 478 -83 66 -170 66 -329 3 -194 -77 -260 -77 -538 -5
-161 41 -194 47 -310 50 -111 3 -143 0 -220 -20z"/>
</g>
</svg>
